<svg width="182" height="170" viewBox="0 0 182 170" fill="none" xmlns="http://www.w3.org/2000/svg">
    <path fill-rule="evenodd" clip-rule="evenodd" d="M92.6415 0C140.669 0 179.602 38.7877 179.602 86.6346C179.602 89.4927 178.707 96.4032 178.267 99.6298C178.132 100.615 177.29 101.343 176.296 101.343L149.248 101.346C147.889 101.346 146.787 102.444 146.787 103.798C146.787 105.073 147.763 106.12 149.011 106.239L149.248 106.25L174.746 106.247C175.965 106.247 176.882 107.365 176.63 108.558C176.312 110.071 174.971 111.156 173.419 111.156H11.8642C8.88022 111.156 11.5133 106.247 14.4974 106.247L47.5204 106.25C48.8797 106.25 49.9816 105.152 49.9816 103.798C49.9816 102.524 49.0055 101.476 47.7575 101.357L47.5204 101.346L9.35011 101.343C8.1437 101.343 7.11664 100.465 6.92857 99.2737C6.69371 97.7854 7.84413 96.4395 9.35078 96.4398L22.9089 96.4423C24.2682 96.4423 25.3701 95.3446 25.3701 93.9904C25.3701 92.7159 24.394 91.6685 23.146 91.5497L22.9089 91.5385L7.78376 91.5369C6.73257 91.5368 5.86064 90.7232 5.801 89.6737C5.74131 88.6236 5.68089 87.3772 5.68089 86.6346C5.68089 38.7877 44.6145 0 92.6415 0ZM165.655 91.5385H147.607C146.248 91.5385 145.146 92.6363 145.146 93.9904C145.146 95.2649 146.122 96.3123 147.37 96.4311L147.607 96.4423H165.655C167.015 96.4423 168.117 95.3446 168.117 93.9904C168.117 92.7159 167.141 91.6685 165.892 91.5497L165.655 91.5385Z" fill="url(#paint0_linear_1299_1427)"/>
    <path d="M8.96116 117.558C8.96116 116.729 9.63266 116.058 10.461 116.058H171.538C172.366 116.058 173.038 116.729 173.038 117.558V119.462C173.038 120.29 172.366 120.962 171.538 120.962H10.461C9.63266 120.962 8.96116 120.29 8.96116 119.462V117.558Z" fill="url(#paint1_linear_1299_1427)"/>
    <path d="M0.757812 127.365C0.757812 126.537 1.42932 125.865 2.25766 125.865H35.3548C36.1832 125.865 36.8547 126.537 36.8547 127.365V129.269C36.8547 130.098 36.1832 130.769 35.3548 130.769H2.25766C1.42932 130.769 0.757812 130.098 0.757812 129.269V127.365Z" fill="url(#paint2_linear_1299_1427)"/>
    <path d="M61.3253 125.865C60.4969 125.865 59.8254 126.537 59.8254 127.365V129.269C59.8254 130.098 60.4969 130.769 61.3253 130.769H117.393C118.221 130.769 118.893 130.098 118.893 129.269V127.365C118.893 126.537 118.221 125.865 117.393 125.865H61.3253Z" fill="url(#paint3_linear_1299_1427)"/>
    <path d="M127.096 137.173C127.096 136.345 127.768 135.673 128.596 135.673H161.693C162.522 135.673 163.193 136.345 163.193 137.173V139.077C163.193 139.905 162.522 140.577 161.693 140.577H128.596C127.768 140.577 127.096 139.905 127.096 139.077V137.173Z" fill="url(#paint4_linear_1299_1427)"/>
    <path d="M146.646 125.865C145.817 125.865 145.146 126.537 145.146 127.365V129.269C145.146 130.098 145.817 130.769 146.646 130.769H179.743C180.571 130.769 181.243 130.098 181.243 129.269V127.365C181.243 126.537 180.571 125.865 179.743 125.865H146.646Z" fill="url(#paint5_linear_1299_1427)"/>
    <path d="M41.7772 127.365C41.7772 126.537 42.4487 125.865 43.2771 125.865H53.4035C54.2319 125.865 54.9034 126.537 54.9034 127.365V129.269C54.9034 130.098 54.2319 130.769 53.4035 130.769H43.2771C42.4487 130.769 41.7772 130.098 41.7772 129.269V127.365Z" fill="url(#paint6_linear_1299_1427)"/>
    <path d="M126.956 125.865C126.128 125.865 125.456 126.537 125.456 127.365V129.269C125.456 130.098 126.128 130.769 126.956 130.769H137.082C137.911 130.769 138.582 130.098 138.582 129.269V127.365C138.582 126.537 137.911 125.865 137.082 125.865H126.956Z" fill="url(#paint7_linear_1299_1427)"/>
    <path d="M18.806 137.173C18.806 136.345 19.4775 135.673 20.3058 135.673H107.548C108.377 135.673 109.048 136.345 109.048 137.173V139.077C109.048 139.905 108.377 140.577 107.548 140.577H20.3058C19.4775 140.577 18.806 139.905 18.806 139.077V137.173Z" fill="url(#paint8_linear_1299_1427)"/>
    <path d="M46.5587 145.481C45.7303 145.481 45.0588 146.152 45.0588 146.981V148.885C45.0588 149.713 45.7303 150.385 46.5587 150.385H112.471C113.3 150.385 113.971 149.713 113.971 148.885V146.981C113.971 146.152 113.3 145.481 112.471 145.481H46.5587Z" fill="url(#paint9_linear_1299_1427)"/>
    <path d="M72.9518 156.788C72.9518 155.96 73.6233 155.288 74.4517 155.288H119.034C119.863 155.288 120.534 155.96 120.534 156.788V158.692C120.534 159.521 119.863 160.192 119.034 160.192H74.4517C73.6233 160.192 72.9518 159.521 72.9518 158.692V156.788Z" fill="url(#paint10_linear_1299_1427)"/>
    <path d="M82.7967 166.596C82.7967 165.768 83.4682 165.096 84.2965 165.096H102.627C103.455 165.096 104.127 165.768 104.127 166.596V168.5C104.127 169.328 103.455 170 102.627 170H84.2965C83.4682 170 82.7967 169.328 82.7967 168.5V166.596Z" fill="url(#paint11_linear_1299_1427)"/>
    <defs>
        <linearGradient id="paint0_linear_1299_1427" x1="-33.6235" y1="-21.9603" x2="-33.6235" y2="212.808" gradientUnits="userSpaceOnUse">
            <stop stop-color="#F7C300"/>
            <stop offset="0.611485" stop-color="#FA006A"/>
        </linearGradient>
        <linearGradient id="paint1_linear_1299_1427" x1="-33.6235" y1="-21.9603" x2="-33.6235" y2="212.808" gradientUnits="userSpaceOnUse">
            <stop stop-color="#F7C300"/>
            <stop offset="0.611485" stop-color="#FA006A"/>
        </linearGradient>
        <linearGradient id="paint2_linear_1299_1427" x1="-33.6235" y1="-21.9603" x2="-33.6235" y2="212.808" gradientUnits="userSpaceOnUse">
            <stop stop-color="#F7C300"/>
            <stop offset="0.611485" stop-color="#FA006A"/>
        </linearGradient>
        <linearGradient id="paint3_linear_1299_1427" x1="-33.6235" y1="-21.9603" x2="-33.6235" y2="212.808" gradientUnits="userSpaceOnUse">
            <stop stop-color="#F7C300"/>
            <stop offset="0.611485" stop-color="#FA006A"/>
        </linearGradient>
        <linearGradient id="paint4_linear_1299_1427" x1="-33.6235" y1="-21.9603" x2="-33.6235" y2="212.808" gradientUnits="userSpaceOnUse">
            <stop stop-color="#F7C300"/>
            <stop offset="0.611485" stop-color="#FA006A"/>
        </linearGradient>
        <linearGradient id="paint5_linear_1299_1427" x1="-33.6235" y1="-21.9603" x2="-33.6235" y2="212.808" gradientUnits="userSpaceOnUse">
            <stop stop-color="#F7C300"/>
            <stop offset="0.611485" stop-color="#FA006A"/>
        </linearGradient>
        <linearGradient id="paint6_linear_1299_1427" x1="-33.6235" y1="-21.9603" x2="-33.6235" y2="212.808" gradientUnits="userSpaceOnUse">
            <stop stop-color="#F7C300"/>
            <stop offset="0.611485" stop-color="#FA006A"/>
        </linearGradient>
        <linearGradient id="paint7_linear_1299_1427" x1="-33.6235" y1="-21.9603" x2="-33.6235" y2="212.808" gradientUnits="userSpaceOnUse">
            <stop stop-color="#F7C300"/>
            <stop offset="0.611485" stop-color="#FA006A"/>
        </linearGradient>
        <linearGradient id="paint8_linear_1299_1427" x1="-33.6235" y1="-21.9603" x2="-33.6235" y2="212.808" gradientUnits="userSpaceOnUse">
            <stop stop-color="#F7C300"/>
            <stop offset="0.611485" stop-color="#FA006A"/>
        </linearGradient>
        <linearGradient id="paint9_linear_1299_1427" x1="-33.6235" y1="-21.9603" x2="-33.6235" y2="212.808" gradientUnits="userSpaceOnUse">
            <stop stop-color="#F7C300"/>
            <stop offset="0.611485" stop-color="#FA006A"/>
        </linearGradient>
        <linearGradient id="paint10_linear_1299_1427" x1="-33.6235" y1="-21.9603" x2="-33.6235" y2="212.808" gradientUnits="userSpaceOnUse">
            <stop stop-color="#F7C300"/>
            <stop offset="0.611485" stop-color="#FA006A"/>
        </linearGradient>
        <linearGradient id="paint11_linear_1299_1427" x1="-33.6235" y1="-21.9603" x2="-33.6235" y2="212.808" gradientUnits="userSpaceOnUse">
            <stop stop-color="#F7C300"/>
            <stop offset="0.611485" stop-color="#FA006A"/>
        </linearGradient>
    </defs>
</svg>
