<svg width="89" height="84" viewBox="0 0 89 84" fill="none" xmlns="http://www.w3.org/2000/svg">
  <path fill-rule="evenodd" clip-rule="evenodd" d="M87 42.867C87 19.1922 67.9721 0 44.5 0C21.0279 0 2 19.1922 2 42.867C2 42.9234 2.0007 42.9857 2.00198 43.0526C2.02619 44.3147 3.09542 45.2927 4.35775 45.2928L10.4198 45.2935L10.5357 45.299C11.1456 45.3578 11.6226 45.876 11.6226 46.5067C11.6226 47.1767 11.0841 47.7199 10.4198 47.7199L3.80829 47.7186C3.06373 47.7185 2.49474 48.3829 2.60942 49.1186C2.70149 49.7092 3.21015 50.1448 3.80796 50.1448L22.4481 50.1463L22.564 50.1519C23.1739 50.2107 23.6509 50.7289 23.6509 51.3595C23.6509 52.0296 23.1124 52.5728 22.4481 52.5728L6.33328 52.5714C4.86012 52.5713 3.54881 55 5.02197 55H83.978C84.7369 55 85.3918 54.4636 85.5476 53.7145C85.6705 53.1237 85.2166 52.5712 84.6131 52.5712L72.1651 52.5728L72.0493 52.5672C71.4393 52.5084 70.9623 51.9902 70.9623 51.3595C70.9623 50.6895 71.5008 50.1463 72.1651 50.1463L84.1484 50.145C85.3431 50.1448 86.3558 49.2663 86.5068 48.0812C86.7274 46.3489 87 43.9833 87 42.867ZM71.3632 45.2935H80.184L80.2998 45.299C80.9098 45.3578 81.3868 45.876 81.3868 46.5067C81.3868 47.1767 80.8483 47.7199 80.184 47.7199H71.3632L71.2474 47.7143C70.6374 47.6555 70.1604 47.1373 70.1604 46.5067C70.1604 45.8366 70.6989 45.2935 71.3632 45.2935ZM5.25974 57C4.58911 57 4.04545 57.5437 4.04545 58.2143C4.04545 58.8849 4.58911 59.4286 5.25974 59.4286H83.7403C84.4109 59.4286 84.9545 58.8849 84.9545 58.2143C84.9545 57.5437 84.4109 57 83.7403 57H5.25974ZM1.21429 61.8571C0.543654 61.8571 0 62.4008 0 63.0714C0 63.7421 0.543654 64.2857 1.21429 64.2857H16.5857C17.2563 64.2857 17.8 63.7421 17.8 63.0714C17.8 62.4008 17.2563 61.8571 16.5857 61.8571H1.21429ZM29.1273 63.0714C29.1273 62.4008 29.6709 61.8571 30.3416 61.8571H57.0403C57.7109 61.8571 58.2545 62.4008 58.2545 63.0714C58.2545 63.7421 57.7109 64.2857 57.0403 64.2857H30.3416C29.6709 64.2857 29.1273 63.7421 29.1273 63.0714ZM63.5143 66.7143C62.8437 66.7143 62.3 67.2579 62.3 67.9286C62.3 68.5992 62.8437 69.1429 63.5143 69.1429H78.8857C79.5563 69.1429 80.1 68.5992 80.1 67.9286C80.1 67.2579 79.5563 66.7143 78.8857 66.7143H63.5143ZM71.2 63.0714C71.2 62.4008 71.7437 61.8571 72.4143 61.8571H87.7857C88.4563 61.8571 89 62.4008 89 63.0714C89 63.7421 88.4563 64.2857 87.7857 64.2857H72.4143C71.7437 64.2857 71.2 63.7421 71.2 63.0714ZM21.4416 61.8571C20.7709 61.8571 20.2273 62.4008 20.2273 63.0714C20.2273 63.7421 20.7709 64.2857 21.4416 64.2857H25.4857C26.1563 64.2857 26.7 63.7421 26.7 63.0714C26.7 62.4008 26.1563 61.8571 25.4857 61.8571H21.4416ZM61.4909 63.0714C61.4909 62.4008 62.0346 61.8571 62.7052 61.8571H66.7494C67.42 61.8571 67.9636 62.4008 67.9636 63.0714C67.9636 63.7421 67.42 64.2857 66.7494 64.2857H62.7052C62.0346 64.2857 61.4909 63.7421 61.4909 63.0714ZM10.1143 66.7143C9.44365 66.7143 8.9 67.2579 8.9 67.9286C8.9 68.5992 9.44366 69.1429 10.1143 69.1429H52.1857C52.8563 69.1429 53.4 68.5992 53.4 67.9286C53.4 67.2579 52.8563 66.7143 52.1857 66.7143H10.1143ZM21.8455 72.7857C21.8455 72.1151 22.3891 71.5714 23.0597 71.5714H54.613C55.2836 71.5714 55.8273 72.1151 55.8273 72.7857C55.8273 73.4563 55.2836 74 54.613 74H23.0597C22.3891 74 21.8455 73.4563 21.8455 72.7857ZM36 78C36 77.4477 36.4477 77 37 77H58C58.5523 77 59 77.4477 59 78C59 78.5523 58.5523 79 58 79H37C36.4477 79 36 78.5523 36 78ZM41 82C40.4477 82 40 82.4477 40 83C40 83.5523 40.4477 84 41 84H50C50.5523 84 51 83.5523 51 83C51 82.4477 50.5523 82 50 82H41Z" fill="url(#paint0_linear)"/>
  <defs>
    <linearGradient id="paint0_linear" x1="-16.954" y1="-10.851" x2="-16.954" y2="105.152" gradientUnits="userSpaceOnUse">
      <stop stop-color="#F7C300"/>
      <stop offset="1" stop-color="#FA006A"/>
    </linearGradient>
  </defs>
</svg>
